PathFileType	4	(X/Y/Z)	./resultDataOpenSim/trcMotMarkerGrf/sub09/qtm-03-06.trc
DataRate	CameraRate	NumFrames	NumMarkers	Units	OrigDataRate	OrigDataStartFrame	OrigNumFrames
250.000000	250.000000	6	24	m	250.000000	247	492
Frame#	Time	L.Toe.Tip			R.Toe.Tip			L.Ankle.Lat			R.Ankle.Lat			L.Ankle.Med			R.Ankle.Med			L.Heel			R.Heel			L.Knee.Lat			R.Knee.Lat			L.Knee.Med			R.Knee.Med			L.Thigh.Upper			R.Thigh.Upper			L.ASIS			R.ASIS			V.Sacral			L.Acromium			R.Acromium			C7			L.Elbow			R.Elbow			L.Wrist.Lat			R.Wrist.Lat
		X1	Y1	Z1	X2	Y2	Z2	X3	Y3	Z3	X4	Y4	Z4	X5	Y5	Z5	X6	Y6	Z6	X7	Y7	Z7	X8	Y8	Z8	X9	Y9	Z9	X10	Y10	Z10	X11	Y11	Z11	X12	Y12	Z12	X13	Y13	Z13	X14	Y14	Z14	X15	Y15	Z15	X16	Y16	Z16	X17	Y17	Z17	X18	Y18	Z18	X19	Y19	Z19	X20	Y20	Z20	X21	Y21	Z21	X22	Y22	Z22	X23	Y23	Z23	X24	Y24	Z24

247	0.984	0.091294367	-0.011106759	0.12661468	0.25168532	0.10995527	0.21824109	-0.054779658	0.043558489	0.08249367	0.1133666	0.15631534	0.2372766	-0.027051291	0.066195357	0.17426446	0.13975556	0.18157318	0.14311615	-0.12640151	0.021583023	0.12966363	0.044660814	0.14320128	0.18318362	0.039712599	0.446319	0.0089903555	0.32388636	0.54829004	0.26368468	0.044600388	0.45158925	0.13436795	0.32025106	0.53551094	0.13786845	0.087345964	0.86744309	-0.058254703	0.096206993	0.88399205	0.31110752	0.18171836	0.94748716	0.00030545939	0.17171167	0.96283149	0.23905719	0.015379305	1.0199546	0.11436673	0.2045447	1.4046352	-0.041653285	0.15757113	1.4217195	0.28436501	0.11312761	1.4646377	0.11279259	0.087202217	1.0465988	-0.10731649	-0.018630251	1.1062568	0.35541681	0.31093842	0.8908592	-0.10240183	0.062985153	0.84964943	0.39176524
248	0.988	0.091322512	-0.011110023	0.12653324	0.27142499	0.10957998	0.216616	-0.054852143	0.044321118	0.08318394	0.13194176	0.1519708	0.23604082	-0.026117093	0.066902445	0.17444292	0.15731012	0.1783162	0.1420692	-0.12616692	0.022570161	0.1310601	0.063758864	0.13720717	0.18185038	0.039750759	0.44702592	0.0091165886	0.33193649	0.55005201	0.26306743	0.04549622	0.4521454	0.13435301	0.32818964	0.53719623	0.13749457	0.091952853	0.86755221	-0.058132506	0.1019866	0.88431651	0.31126131	0.1870552	0.94736861	0.00021186759	0.17747396	0.96305379	0.23891222	0.020845116	1.0200798	0.11463979	0.21008572	1.4045802	-0.041942536	0.16385652	1.4217832	0.28413656	0.11906321	1.4646183	0.11263245	0.093830949	1.0459015	-0.10720954	-0.012434299	1.1065178	0.35537883	0.31965512	0.89300077	-0.10165231	0.069021277	0.8498333	0.39196806
249	0.992	0.091315529	-0.011128568	0.12650273	0.29116403	0.10923056	0.21490992	-0.054897284	0.045086991	0.083844891	0.15057398	0.14773535	0.23477022	-0.025227784	0.067587865	0.17468564	0.174963	0.1751037	0.14096693	-0.12591042	0.023577313	0.13238874	0.082604915	0.13138798	0.18082543	0.039869005	0.44772096	0.0092461671	0.33985023	0.55169513	0.26250593	0.046549558	0.45271673	0.13425508	0.33598616	0.53872869	0.1371806	0.096586516	0.86760176	-0.057988524	0.10768617	0.88454066	0.3113903	0.19229729	0.94714737	8.1059399e-05	0.18324813	0.96318986	0.23878764	0.026333935	1.0201169	0.11490177	0.21562805	1.4044584	-0.04223629	0.17014227	1.4217804	0.28390685	0.12503219	1.4645038	0.11247255	0.10047707	1.0451504	-0.1070966	-0.0062084227	1.1066837	0.35546848	0.32832726	0.89508473	-0.10090009	0.075107648	0.8499357	0.39217063
250	0.996	0.091270881	-0.011160541	0.12652305	0.31086565	0.10889937	0.21314679	-0.054956362	0.045864719	0.084465259	0.16922532	0.14360949	0.23349349	-0.024412976	0.068258965	0.17500041	0.19270975	0.17194573	0.13979155	-0.12563301	0.024600137	0.13358475	0.10138999	0.12571088	0.17993123	0.040103499	0.44840681	0.0093718966	0.3477047	0.55325954	0.26206322	0.047614959	0.45329435	0.13420476	0.34361747	0.54011938	0.13694441	0.10124849	0.86758281	-0.057856084	0.11341722	0.88468425	0.31152829	0.19746155	0.9468267	-7.7965273e-05	0.18901996	0.96323268	0.23867627	0.031845739	1.0200637	0.11515377	0.22119084	1.4042681	-0.042530752	0.17644015	1.4217068	0.28367752	0.13102535	1.4642953	0.11230736	0.10713902	1.044344	-0.10698706	2.2138809e-05	1.1067801	0.35583088	0.33694997	0.89710598	-0.10014441	0.081233799	0.84995457	0.39236826
251	1	0.091233845	-0.011191181	0.1265344	0.33051325	0.10859884	0.21135039	-0.055025819	0.046652177	0.085064018	0.18786221	0.13958318	0.23220978	-0.023680565	0.068920033	0.17537172	0.21055087	0.16885388	0.13854831	-0.12533859	0.025632382	0.13468275	0.12035674	0.12013978	0.17889327	0.040473233	0.44908337	0.0094968962	0.35558391	0.5547675	0.26179188	0.048508803	0.4538442	0.13437819	0.35114895	0.54136483	0.1367744	0.1059261	0.8674889	-0.057741545	0.11922917	0.88475113	0.31169404	0.20260952	0.94642591	-0.00024044412	0.19479047	0.96317872	0.23857649	0.037380276	1.0199164	0.11540669	0.22678995	1.4040068	-0.0428166	0.18275741	1.4215599	0.28344517	0.13702553	1.4640051	0.11213578	0.11380926	1.0434802	-0.10688543	0.0062437408	1.1068204	0.3563951	0.34551497	0.89905927	-0.099391164	0.087410027	0.84989794	0.39256549
252	1.004	0.091264575	-0.011198378	0.12645455	0.35010878	0.10834725	0.20954005	-0.055090882	0.047448427	0.085656526	0.20649984	0.13564446	0.23088612	-0.022995605	0.069577524	0.17576083	0.22848266	0.16583684	0.13725442	-0.12504176	0.026666253	0.13571391	0.13958457	0.11468587	0.17762289	0.04096784	0.44974085	0.0096298262	0.36352977	0.55618873	0.26166479	0.049061622	0.45430162	0.1348911	0.35862566	0.54246496	0.13667364	0.1106011	0.8673184	-0.057635932	0.12508032	0.88472175	0.31187972	0.20782942	0.94596887	-0.0003719409	0.2005809	0.9630273	0.23849403	0.042934377	1.0196736	0.11566679	0.23243663	1.4036749	-0.043091151	0.18908622	1.4213429	0.2832055	0.14302613	1.4636563	0.11195676	0.12048195	1.0425578	-0.10678522	0.012474067	1.1067903	0.35695216	0.35401693	0.90094172	-0.098645292	0.093649244	0.84977226	0.39276506
